<?xml version="1.0" standalone="no"?>
<!DOCTYPE svg PUBLIC "-//W3C//DTD SVG 20010904//EN"
 "http://www.w3.org/TR/2001/REC-SVG-20010904/DTD/svg10.dtd">
<svg version="1.0" xmlns="http://www.w3.org/2000/svg"
 width="881.000000pt" height="881.000000pt" viewBox="0 0 881.000000 881.000000"
 preserveAspectRatio="xMidYMid meet">
<metadata>
Created by potrace 1.11, written by Peter Selinger 2001-2013
</metadata>
<g transform="translate(0.000000,881.000000) scale(0.100000,-0.100000)"
fill="#000000" stroke="none">
<path d="M6694 5966 c-45 -20 -89 -79 -125 -168 -17 -43 -39 -83 -48 -87 -9
-5 -46 -17 -81 -26 -138 -35 -187 -90 -197 -219 -10 -127 29 -187 127 -201 28
-4 54 -13 56 -20 8 -20 -39 -178 -181 -600 -118 -352 -149 -458 -254 -880 -97
-390 -128 -501 -167 -590 -53 -122 -59 -178 -28 -254 47 -119 151 -119 258 0
84 93 108 165 196 594 53 254 91 386 114 396 12 4 62 15 111 24 336 60 736
161 955 242 148 54 385 176 490 250 128 91 269 232 303 303 38 78 60 189 61
305 1 126 -18 189 -85 289 -172 258 -536 399 -1115 432 l-121 7 -34 68 c-46
96 -94 141 -156 146 -28 2 -61 -3 -79 -11z m936 -595 c231 -59 376 -194 388
-363 6 -76 -21 -130 -101 -204 -147 -136 -380 -255 -737 -374 -226 -76 -654
-172 -694 -157 -19 8 -18 12 27 167 60 207 289 844 323 897 29 46 166 63 479
58 196 -2 243 -6 315 -24z"/>
<path d="M1352 5763 c-16 -14 -116 -330 -406 -1283 -212 -696 -393 -1294 -403
-1330 -23 -87 -22 -194 2 -244 32 -67 102 -93 164 -62 42 22 99 90 110 133 75
292 129 466 179 575 30 65 31 67 84 82 29 9 292 80 583 160 518 140 631 169
728 181 42 6 47 4 47 -13 0 -10 -16 -97 -35 -193 -64 -314 -116 -623 -117
-694 -3 -122 48 -189 141 -187 61 1 116 28 163 80 43 48 53 86 108 447 35 223
85 472 120 595 6 21 34 57 75 96 80 76 98 116 95 204 -9 209 -16 178 138 635
77 231 145 446 150 478 5 32 5 77 1 100 -4 23 -8 45 -9 49 0 15 -64 79 -91 94
-36 18 -122 18 -158 -1 -65 -33 -110 -135 -161 -365 -17 -74 -48 -193 -70
-265 -21 -71 -64 -220 -95 -330 -68 -239 -103 -320 -148 -340 -49 -22 -1191
-273 -1292 -284 -49 -5 -91 -8 -93 -7 -1 2 84 295 189 652 105 357 199 690
210 739 33 158 22 247 -36 293 -36 29 -142 31 -173 5z"/>
<path d="M5400 5770 c-445 -37 -839 -127 -1240 -285 -181 -71 -453 -210 -487
-248 -69 -78 -70 -198 -2 -263 28 -27 36 -29 102 -29 72 0 75 1 292 107 265
128 515 228 572 228 9 0 13 -18 13 -67 0 -139 -45 -343 -201 -908 -169 -609
-192 -695 -235 -873 -24 -101 -44 -197 -44 -215 1 -45 32 -108 69 -140 27 -22
42 -27 89 -27 65 0 139 31 152 64 5 11 19 78 30 148 21 128 144 647 220 930
23 84 84 293 135 463 105 351 133 466 142 598 9 137 3 131 129 151 226 37 611
47 823 21 116 -15 126 -14 160 2 48 24 74 78 75 157 2 105 -42 146 -187 172
-99 18 -456 26 -607 14z"/>
</g>
</svg>
